solid OpenSCAD_Model
  facet normal -0.922858 -0.382256 -0.0470527
    outer loop
      vertex -7.33145 -7.33145 50.7053
      vertex -10.3682 0 50.7053
      vertex -5.38957 -5.38957 -3.15714
    endloop
  endfacet
  facet normal 0.382261 -0.922856 -0.047052
    outer loop
      vertex 5.38957 -5.38957 -3.15714
      vertex 0 -10.3682 50.7053
      vertex 0 -7.62201 -3.15714
    endloop
  endfacet
  facet normal -0.678598 -0.281085 -0.678598
    outer loop
      vertex -5.38957 -5.38957 -3.15714
      vertex -7.62201 0 -3.15714
      vertex -3.15714 0 -7.62201
    endloop
  endfacet
  facet normal -0.382261 -0.922856 -0.047052
    outer loop
      vertex 0 -10.3682 50.7053
      vertex -5.38957 -5.38957 -3.15714
      vertex 0 -7.62201 -3.15714
    endloop
  endfacet
  facet normal 0.281085 -0.678598 -0.678598
    outer loop
      vertex 5.38957 -5.38957 -3.15714
      vertex 0 -7.62201 -3.15714
      vertex 0 -3.15714 -7.62201
    endloop
  endfacet
  facet normal 0.281086 -0.678597 -0.678599
    outer loop
      vertex 5.38957 -5.38957 -3.15714
      vertex 0 -3.15714 -7.62201
      vertex 2.23243 -2.23243 -7.62201
    endloop
  endfacet
  facet normal -0.923595 0.382561 0.0249036
    outer loop
      vertex -7.33145 7.33145 59.2947
      vertex -10.3682 0 59.2947
      vertex -8.90158 0 113.687
    endloop
  endfacet
  facet normal 0.922856 -0.382261 -0.047052
    outer loop
      vertex 10.3682 0 50.7053
      vertex 5.38957 -5.38957 -3.15714
      vertex 7.62201 0 -3.15714
    endloop
  endfacet
  facet normal -0.382256 -0.922858 -0.0470527
    outer loop
      vertex 0 -10.3682 50.7053
      vertex -7.33145 -7.33145 50.7053
      vertex -5.38957 -5.38957 -3.15714
    endloop
  endfacet
  facet normal -0.38268 0.923881 0
    outer loop
      vertex 0 10.3682 50.7053
      vertex -7.33145 7.33145 59.2947
      vertex 0 10.3682 59.2947
    endloop
  endfacet
  facet normal -0.38268 0.923881 0
    outer loop
      vertex -7.33145 7.33145 59.2947
      vertex 0 10.3682 50.7053
      vertex -7.33145 7.33145 50.7053
    endloop
  endfacet
  facet normal -0.280886 -0.678907 0.678371
    outer loop
      vertex -3.58898 -5.37129 115.731
      vertex -6.29437 -6.29437 113.687
      vertex -2.47213 -5.96826 115.596
    endloop
  endfacet
  facet normal -0.281145 -0.678597 0.678575
    outer loop
      vertex -6.29437 -6.29437 113.687
      vertex -3.58898 -5.37129 115.731
      vertex -3.74894 -5.24002 115.796
    endloop
  endfacet
  facet normal -0.281062 -0.678544 0.678662
    outer loop
      vertex 0 -8.90158 113.687
      vertex -2.47213 -5.96826 115.596
      vertex -6.29437 -6.29437 113.687
    endloop
  endfacet
  facet normal -0.281444 -0.678677 0.678371
    outer loop
      vertex -2.47213 -5.96826 115.596
      vertex 0 -8.90158 113.687
      vertex -1.26028 -6.33587 115.731
    endloop
  endfacet
  facet normal -0.281125 -0.678648 0.678532
    outer loop
      vertex -1.26028 -6.33587 115.731
      vertex 0 -8.90158 113.687
      vertex 0 -6.46 116.129
    endloop
  endfacet
  facet normal -0.382256 0.922858 -0.0470527
    outer loop
      vertex -5.38957 5.38957 -3.15714
      vertex -7.33145 7.33145 50.7053
      vertex 0 10.3682 50.7053
    endloop
  endfacet
  facet normal 0.922856 0.382261 -0.047052
    outer loop
      vertex 7.62201 0 -3.15714
      vertex 5.38957 5.38957 -3.15714
      vertex 10.3682 0 50.7053
    endloop
  endfacet
  facet normal -0.281086 0.678597 -0.678599
    outer loop
      vertex -2.23243 2.23243 -7.62201
      vertex -5.38957 5.38957 -3.15714
      vertex 0 3.15714 -7.62201
    endloop
  endfacet
  facet normal -0.922856 0.382261 -0.047052
    outer loop
      vertex -7.62201 0 -3.15714
      vertex -10.3682 0 50.7053
      vertex -5.38957 5.38957 -3.15714
    endloop
  endfacet
  facet normal -0.382561 0.923595 0.0249036
    outer loop
      vertex 0 10.3682 59.2947
      vertex -7.33145 7.33145 59.2947
      vertex 0 8.90158 113.687
    endloop
  endfacet
  facet normal -0.678672 -0.281076 0.678528
    outer loop
      vertex -5.24002 -3.74894 115.796
      vertex -6.29437 -6.29437 113.687
      vertex -4.56791 -4.56791 116.129
    endloop
  endfacet
  facet normal -0.678597 0.281145 0.678575
    outer loop
      vertex -6.29437 6.29437 113.687
      vertex -5.37129 3.58898 115.731
      vertex -5.24002 3.74894 115.796
    endloop
  endfacet
  facet normal -0.678907 0.280886 0.678371
    outer loop
      vertex -6.29437 6.29437 113.687
      vertex -5.96826 2.47213 115.596
      vertex -5.37129 3.58898 115.731
    endloop
  endfacet
  facet normal -0.678544 0.281062 0.678662
    outer loop
      vertex -8.90158 0 113.687
      vertex -5.96826 2.47213 115.596
      vertex -6.29437 6.29437 113.687
    endloop
  endfacet
  facet normal -0.678677 0.281444 0.678371
    outer loop
      vertex -5.96826 2.47213 115.596
      vertex -8.90158 0 113.687
      vertex -6.33587 1.26028 115.731
    endloop
  endfacet
  facet normal -0.678648 0.281125 0.678532
    outer loop
      vertex -6.33587 1.26028 115.731
      vertex -8.90158 0 113.687
      vertex -6.46 0 116.129
    endloop
  endfacet
  facet normal -0.678597 0.281086 -0.678599
    outer loop
      vertex -3.15714 0 -7.62201
      vertex -5.38957 5.38957 -3.15714
      vertex -2.23243 2.23243 -7.62201
    endloop
  endfacet
  facet normal -0.678598 0.281085 -0.678598
    outer loop
      vertex -3.15714 0 -7.62201
      vertex -7.62201 0 -3.15714
      vertex -5.38957 5.38957 -3.15714
    endloop
  endfacet
  facet normal 0.382261 0.922856 -0.047052
    outer loop
      vertex 5.38957 5.38957 -3.15714
      vertex 0 7.62201 -3.15714
      vertex 0 10.3682 50.7053
    endloop
  endfacet
  facet normal -0.281085 -0.678598 -0.678598
    outer loop
      vertex 0 -7.62201 -3.15714
      vertex -5.38957 -5.38957 -3.15714
      vertex 0 -3.15714 -7.62201
    endloop
  endfacet
  facet normal -0.922858 0.382256 -0.0470527
    outer loop
      vertex -5.38957 5.38957 -3.15714
      vertex -10.3682 0 50.7053
      vertex -7.33145 7.33145 50.7053
    endloop
  endfacet
  facet normal 0.38268 -0.923881 0
    outer loop
      vertex 0 -10.3682 50.7053
      vertex 7.33145 -7.33145 59.2947
      vertex 0 -10.3682 59.2947
    endloop
  endfacet
  facet normal 0.38268 -0.923881 0
    outer loop
      vertex 7.33145 -7.33145 59.2947
      vertex 0 -10.3682 50.7053
      vertex 7.33145 -7.33145 50.7053
    endloop
  endfacet
  facet normal 0.922858 0.382256 -0.0470527
    outer loop
      vertex 10.3682 0 50.7053
      vertex 5.38957 5.38957 -3.15714
      vertex 7.33145 7.33145 50.7053
    endloop
  endfacet
  facet normal 0.382256 0.922858 -0.0470527
    outer loop
      vertex 5.38957 5.38957 -3.15714
      vertex 0 10.3682 50.7053
      vertex 7.33145 7.33145 50.7053
    endloop
  endfacet
  facet normal -0.382564 0.923593 0.0249041
    outer loop
      vertex 0 8.90158 113.687
      vertex -7.33145 7.33145 59.2947
      vertex -6.29437 6.29437 113.687
    endloop
  endfacet
  facet normal -0.678648 -0.281125 0.678532
    outer loop
      vertex -8.90158 0 113.687
      vertex -6.33587 -1.26028 115.731
      vertex -6.46 0 116.129
    endloop
  endfacet
  facet normal -0.678677 -0.281444 0.678371
    outer loop
      vertex -8.90158 0 113.687
      vertex -5.96826 -2.47213 115.596
      vertex -6.33587 -1.26028 115.731
    endloop
  endfacet
  facet normal -0.678544 -0.281062 0.678662
    outer loop
      vertex -6.29437 -6.29437 113.687
      vertex -5.96826 -2.47213 115.596
      vertex -8.90158 0 113.687
    endloop
  endfacet
  facet normal -0.678907 -0.280886 0.678371
    outer loop
      vertex -5.96826 -2.47213 115.596
      vertex -6.29437 -6.29437 113.687
      vertex -5.37129 -3.58898 115.731
    endloop
  endfacet
  facet normal -0.678597 -0.281145 0.678575
    outer loop
      vertex -5.37129 -3.58898 115.731
      vertex -6.29437 -6.29437 113.687
      vertex -5.24002 -3.74894 115.796
    endloop
  endfacet
  facet normal 0.922858 -0.382256 -0.0470527
    outer loop
      vertex 7.33145 -7.33145 50.7053
      vertex 5.38957 -5.38957 -3.15714
      vertex 10.3682 0 50.7053
    endloop
  endfacet
  facet normal 0.923593 0.382564 0.0249041
    outer loop
      vertex 7.33145 7.33145 59.2947
      vertex 6.29437 6.29437 113.687
      vertex 8.90158 0 113.687
    endloop
  endfacet
  facet normal -0.678597 -0.281086 -0.678599
    outer loop
      vertex -2.23243 -2.23243 -7.62201
      vertex -5.38957 -5.38957 -3.15714
      vertex -3.15714 0 -7.62201
    endloop
  endfacet
  facet normal -0.382564 -0.923593 0.0249041
    outer loop
      vertex -6.29437 -6.29437 113.687
      vertex -7.33145 -7.33145 59.2947
      vertex 0 -8.90158 113.687
    endloop
  endfacet
  facet normal -0.281086 -0.678597 -0.678599
    outer loop
      vertex 0 -3.15714 -7.62201
      vertex -5.38957 -5.38957 -3.15714
      vertex -2.23243 -2.23243 -7.62201
    endloop
  endfacet
  facet normal -0.922856 -0.382261 -0.047052
    outer loop
      vertex -5.38957 -5.38957 -3.15714
      vertex -10.3682 0 50.7053
      vertex -7.62201 0 -3.15714
    endloop
  endfacet
  facet normal 0.678598 0.281085 -0.678598
    outer loop
      vertex 7.62201 0 -3.15714
      vertex 3.15714 0 -7.62201
      vertex 5.38957 5.38957 -3.15714
    endloop
  endfacet
  facet normal -0.382261 0.922856 -0.047052
    outer loop
      vertex 0 7.62201 -3.15714
      vertex -5.38957 5.38957 -3.15714
      vertex 0 10.3682 50.7053
    endloop
  endfacet
  facet normal 0.281076 -0.678672 0.678528
    outer loop
      vertex 4.56791 -4.56791 116.129
      vertex 3.74894 -5.24002 115.796
      vertex 6.29437 -6.29437 113.687
    endloop
  endfacet
  facet normal 0.281444 -0.678677 0.678371
    outer loop
      vertex 1.26028 -6.33587 115.731
      vertex 0 -8.90158 113.687
      vertex 2.47213 -5.96826 115.596
    endloop
  endfacet
  facet normal 0.281125 -0.678648 0.678532
    outer loop
      vertex 0 -8.90158 113.687
      vertex 1.26028 -6.33587 115.731
      vertex 0 -6.46 116.129
    endloop
  endfacet
  facet normal 0.281062 -0.678544 0.678662
    outer loop
      vertex 6.29437 -6.29437 113.687
      vertex 2.47213 -5.96826 115.596
      vertex 0 -8.90158 113.687
    endloop
  endfacet
  facet normal 0.280886 -0.678907 0.678371
    outer loop
      vertex 2.47213 -5.96826 115.596
      vertex 6.29437 -6.29437 113.687
      vertex 3.58898 -5.37129 115.731
    endloop
  endfacet
  facet normal 0.281145 -0.678597 0.678575
    outer loop
      vertex 3.58898 -5.37129 115.731
      vertex 6.29437 -6.29437 113.687
      vertex 3.74894 -5.24002 115.796
    endloop
  endfacet
  facet normal 0.38268 0.923881 -0
    outer loop
      vertex 7.33145 7.33145 50.7053
      vertex 0 10.3682 59.2947
      vertex 7.33145 7.33145 59.2947
    endloop
  endfacet
  facet normal 0.38268 0.923881 0
    outer loop
      vertex 0 10.3682 59.2947
      vertex 7.33145 7.33145 50.7053
      vertex 0 10.3682 50.7053
    endloop
  endfacet
  facet normal 0.382564 0.923593 0.0249041
    outer loop
      vertex 7.33145 7.33145 59.2947
      vertex 0 8.90158 113.687
      vertex 6.29437 6.29437 113.687
    endloop
  endfacet
  facet normal -0.923881 -0.38268 0
    outer loop
      vertex -7.33145 -7.33145 50.7053
      vertex -10.3682 0 59.2947
      vertex -10.3682 0 50.7053
    endloop
  endfacet
  facet normal -0.923881 -0.38268 0
    outer loop
      vertex -10.3682 0 59.2947
      vertex -7.33145 -7.33145 50.7053
      vertex -7.33145 -7.33145 59.2947
    endloop
  endfacet
  facet normal -0.923593 0.382564 0.0249041
    outer loop
      vertex -7.33145 7.33145 59.2947
      vertex -8.90158 0 113.687
      vertex -6.29437 6.29437 113.687
    endloop
  endfacet
  facet normal -0.678672 0.281076 0.678528
    outer loop
      vertex -4.56791 4.56791 116.129
      vertex -6.29437 6.29437 113.687
      vertex -5.24002 3.74894 115.796
    endloop
  endfacet
  facet normal 0.678648 -0.281125 0.678532
    outer loop
      vertex 6.33587 -1.26028 115.731
      vertex 8.90158 0 113.687
      vertex 6.46 0 116.129
    endloop
  endfacet
  facet normal 0.678677 -0.281444 0.678371
    outer loop
      vertex 5.96826 -2.47213 115.596
      vertex 8.90158 0 113.687
      vertex 6.33587 -1.26028 115.731
    endloop
  endfacet
  facet normal 0.678907 -0.280886 0.678371
    outer loop
      vertex 6.29437 -6.29437 113.687
      vertex 5.96826 -2.47213 115.596
      vertex 5.37129 -3.58898 115.731
    endloop
  endfacet
  facet normal 0.678597 -0.281145 0.678575
    outer loop
      vertex 6.29437 -6.29437 113.687
      vertex 5.37129 -3.58898 115.731
      vertex 5.24002 -3.74894 115.796
    endloop
  endfacet
  facet normal 0.678544 -0.281062 0.678662
    outer loop
      vertex 5.96826 -2.47213 115.596
      vertex 6.29437 -6.29437 113.687
      vertex 8.90158 0 113.687
    endloop
  endfacet
  facet normal -0.38268 -0.923881 0
    outer loop
      vertex -7.33145 -7.33145 50.7053
      vertex 0 -10.3682 59.2947
      vertex -7.33145 -7.33145 59.2947
    endloop
  endfacet
  facet normal -0.38268 -0.923881 -0
    outer loop
      vertex 0 -10.3682 59.2947
      vertex -7.33145 -7.33145 50.7053
      vertex 0 -10.3682 50.7053
    endloop
  endfacet
  facet normal -0.382561 -0.923595 0.0249036
    outer loop
      vertex 0 -8.90158 113.687
      vertex -7.33145 -7.33145 59.2947
      vertex 0 -10.3682 59.2947
    endloop
  endfacet
  facet normal 0.281086 0.678597 -0.678599
    outer loop
      vertex 2.23243 2.23243 -7.62201
      vertex 0 3.15714 -7.62201
      vertex 5.38957 5.38957 -3.15714
    endloop
  endfacet
  facet normal 0.281085 0.678598 -0.678598
    outer loop
      vertex 5.38957 5.38957 -3.15714
      vertex 0 3.15714 -7.62201
      vertex 0 7.62201 -3.15714
    endloop
  endfacet
  facet normal -0.923593 -0.382564 0.0249041
    outer loop
      vertex -6.29437 -6.29437 113.687
      vertex -8.90158 0 113.687
      vertex -7.33145 -7.33145 59.2947
    endloop
  endfacet
  facet normal -0.923595 -0.382561 0.0249036
    outer loop
      vertex -8.90158 0 113.687
      vertex -10.3682 0 59.2947
      vertex -7.33145 -7.33145 59.2947
    endloop
  endfacet
  facet normal 0.678597 0.281086 -0.678599
    outer loop
      vertex 3.15714 0 -7.62201
      vertex 2.23243 2.23243 -7.62201
      vertex 5.38957 5.38957 -3.15714
    endloop
  endfacet
  facet normal -0.281085 0.678598 -0.678598
    outer loop
      vertex 0 3.15714 -7.62201
      vertex -5.38957 5.38957 -3.15714
      vertex 0 7.62201 -3.15714
    endloop
  endfacet
  facet normal 0.923881 -0.38268 0
    outer loop
      vertex 7.33145 -7.33145 59.2947
      vertex 10.3682 0 50.7053
      vertex 10.3682 0 59.2947
    endloop
  endfacet
  facet normal 0.923881 -0.38268 0
    outer loop
      vertex 10.3682 0 50.7053
      vertex 7.33145 -7.33145 59.2947
      vertex 7.33145 -7.33145 50.7053
    endloop
  endfacet
  facet normal 0.923595 0.382561 0.0249036
    outer loop
      vertex 10.3682 0 59.2947
      vertex 7.33145 7.33145 59.2947
      vertex 8.90158 0 113.687
    endloop
  endfacet
  facet normal 0.923881 0.38268 0
    outer loop
      vertex 10.3682 0 59.2947
      vertex 7.33145 7.33145 50.7053
      vertex 7.33145 7.33145 59.2947
    endloop
  endfacet
  facet normal 0.923881 0.38268 0
    outer loop
      vertex 7.33145 7.33145 50.7053
      vertex 10.3682 0 59.2947
      vertex 10.3682 0 50.7053
    endloop
  endfacet
  facet normal 0.382561 0.923595 0.0249036
    outer loop
      vertex 0 10.3682 59.2947
      vertex 0 8.90158 113.687
      vertex 7.33145 7.33145 59.2947
    endloop
  endfacet
  facet normal -0.923881 0.38268 0
    outer loop
      vertex -10.3682 0 50.7053
      vertex -7.33145 7.33145 59.2947
      vertex -7.33145 7.33145 50.7053
    endloop
  endfacet
  facet normal -0.923881 0.38268 0
    outer loop
      vertex -7.33145 7.33145 59.2947
      vertex -10.3682 0 50.7053
      vertex -10.3682 0 59.2947
    endloop
  endfacet
  facet normal -0.281076 -0.678672 0.678528
    outer loop
      vertex -4.56791 -4.56791 116.129
      vertex -6.29437 -6.29437 113.687
      vertex -3.74894 -5.24002 115.796
    endloop
  endfacet
  facet normal 0.281076 0.678672 0.678528
    outer loop
      vertex 6.29437 6.29437 113.687
      vertex 3.74894 5.24002 115.796
      vertex 4.56791 4.56791 116.129
    endloop
  endfacet
  facet normal 0.280886 0.678907 0.678371
    outer loop
      vertex 3.58898 5.37129 115.731
      vertex 6.29437 6.29437 113.687
      vertex 2.47213 5.96826 115.596
    endloop
  endfacet
  facet normal 0.281145 0.678597 0.678575
    outer loop
      vertex 6.29437 6.29437 113.687
      vertex 3.58898 5.37129 115.731
      vertex 3.74894 5.24002 115.796
    endloop
  endfacet
  facet normal 0.281062 0.678544 0.678662
    outer loop
      vertex 0 8.90158 113.687
      vertex 2.47213 5.96826 115.596
      vertex 6.29437 6.29437 113.687
    endloop
  endfacet
  facet normal 0.281444 0.678677 0.678371
    outer loop
      vertex 2.47213 5.96826 115.596
      vertex 0 8.90158 113.687
      vertex 1.26028 6.33587 115.731
    endloop
  endfacet
  facet normal 0.281125 0.678648 0.678532
    outer loop
      vertex 1.26028 6.33587 115.731
      vertex 0 8.90158 113.687
      vertex 0 6.46 116.129
    endloop
  endfacet
  facet normal -0.281444 0.678677 0.678371
    outer loop
      vertex -1.26028 6.33587 115.731
      vertex 0 8.90158 113.687
      vertex -2.47213 5.96826 115.596
    endloop
  endfacet
  facet normal -0.281125 0.678648 0.678532
    outer loop
      vertex 0 8.90158 113.687
      vertex -1.26028 6.33587 115.731
      vertex 0 6.46 116.129
    endloop
  endfacet
  facet normal -0.281062 0.678544 0.678662
    outer loop
      vertex -6.29437 6.29437 113.687
      vertex -2.47213 5.96826 115.596
      vertex 0 8.90158 113.687
    endloop
  endfacet
  facet normal -0.280886 0.678907 0.678371
    outer loop
      vertex -2.47213 5.96826 115.596
      vertex -6.29437 6.29437 113.687
      vertex -3.58898 5.37129 115.731
    endloop
  endfacet
  facet normal -0.281145 0.678597 0.678575
    outer loop
      vertex -3.58898 5.37129 115.731
      vertex -6.29437 6.29437 113.687
      vertex -3.74894 5.24002 115.796
    endloop
  endfacet
  facet normal 0.923595 -0.382561 0.0249036
    outer loop
      vertex 8.90158 0 113.687
      vertex 7.33145 -7.33145 59.2947
      vertex 10.3682 0 59.2947
    endloop
  endfacet
  facet normal 0.382256 -0.922858 -0.0470527
    outer loop
      vertex 7.33145 -7.33145 50.7053
      vertex 0 -10.3682 50.7053
      vertex 5.38957 -5.38957 -3.15714
    endloop
  endfacet
  facet normal 0.678597 0.281145 0.678575
    outer loop
      vertex 5.37129 3.58898 115.731
      vertex 6.29437 6.29437 113.687
      vertex 5.24002 3.74894 115.796
    endloop
  endfacet
  facet normal 0.678907 0.280886 0.678371
    outer loop
      vertex 5.96826 2.47213 115.596
      vertex 6.29437 6.29437 113.687
      vertex 5.37129 3.58898 115.731
    endloop
  endfacet
  facet normal 0.678677 0.281444 0.678371
    outer loop
      vertex 8.90158 0 113.687
      vertex 5.96826 2.47213 115.596
      vertex 6.33587 1.26028 115.731
    endloop
  endfacet
  facet normal 0.678648 0.281125 0.678532
    outer loop
      vertex 8.90158 0 113.687
      vertex 6.33587 1.26028 115.731
      vertex 6.46 0 116.129
    endloop
  endfacet
  facet normal 0.678544 0.281062 0.678662
    outer loop
      vertex 5.96826 2.47213 115.596
      vertex 8.90158 0 113.687
      vertex 6.29437 6.29437 113.687
    endloop
  endfacet
  facet normal 0.678672 0.281076 0.678528
    outer loop
      vertex 6.29437 6.29437 113.687
      vertex 4.56791 4.56791 116.129
      vertex 5.24002 3.74894 115.796
    endloop
  endfacet
  facet normal 0 0 -1
    outer loop
      vertex 2.23243 -2.23243 -7.62201
      vertex 2.23243 2.23243 -7.62201
      vertex 3.15714 0 -7.62201
    endloop
  endfacet
  facet normal 0 0 -1
    outer loop
      vertex 0 -3.15714 -7.62201
      vertex 2.23243 2.23243 -7.62201
      vertex 2.23243 -2.23243 -7.62201
    endloop
  endfacet
  facet normal 0 0 -1
    outer loop
      vertex 0 -3.15714 -7.62201
      vertex 0 3.15714 -7.62201
      vertex 2.23243 2.23243 -7.62201
    endloop
  endfacet
  facet normal 0 0 -1
    outer loop
      vertex -2.23243 -2.23243 -7.62201
      vertex 0 3.15714 -7.62201
      vertex 0 -3.15714 -7.62201
    endloop
  endfacet
  facet normal 0 0 -1
    outer loop
      vertex -2.23243 -2.23243 -7.62201
      vertex -2.23243 2.23243 -7.62201
      vertex 0 3.15714 -7.62201
    endloop
  endfacet
  facet normal 0 -0 -1
    outer loop
      vertex -2.23243 2.23243 -7.62201
      vertex -2.23243 -2.23243 -7.62201
      vertex -3.15714 0 -7.62201
    endloop
  endfacet
  facet normal 0.678598 -0.281085 -0.678598
    outer loop
      vertex 5.38957 -5.38957 -3.15714
      vertex 3.15714 0 -7.62201
      vertex 7.62201 0 -3.15714
    endloop
  endfacet
  facet normal 0.678597 -0.281086 -0.678599
    outer loop
      vertex 5.38957 -5.38957 -3.15714
      vertex 2.23243 -2.23243 -7.62201
      vertex 3.15714 0 -7.62201
    endloop
  endfacet
  facet normal -0.281076 0.678672 0.678528
    outer loop
      vertex -3.74894 5.24002 115.796
      vertex -6.29437 6.29437 113.687
      vertex -4.56791 4.56791 116.129
    endloop
  endfacet
  facet normal 0.923593 -0.382564 0.0249041
    outer loop
      vertex 8.90158 0 113.687
      vertex 6.29437 -6.29437 113.687
      vertex 7.33145 -7.33145 59.2947
    endloop
  endfacet
  facet normal 0.382564 -0.923593 0.0249041
    outer loop
      vertex 6.29437 -6.29437 113.687
      vertex 0 -8.90158 113.687
      vertex 7.33145 -7.33145 59.2947
    endloop
  endfacet
  facet normal 0.678672 -0.281076 0.678528
    outer loop
      vertex 5.24002 -3.74894 115.796
      vertex 4.56791 -4.56791 116.129
      vertex 6.29437 -6.29437 113.687
    endloop
  endfacet
  facet normal 0.382561 -0.923595 0.0249036
    outer loop
      vertex 0 -8.90158 113.687
      vertex 0 -10.3682 59.2947
      vertex 7.33145 -7.33145 59.2947
    endloop
  endfacet
  facet normal 0.290284 -0.95694 0
    outer loop
      vertex -1.26028 6.33587 103.365
      vertex -2.47213 5.96826 115.596
      vertex -2.47213 5.96826 103.365
    endloop
  endfacet
  facet normal 0.290284 -0.95694 0
    outer loop
      vertex -2.47213 5.96826 115.596
      vertex -1.26028 6.33587 103.365
      vertex -1.26028 6.33587 115.731
    endloop
  endfacet
  facet normal -0.95694 -0.290284 0
    outer loop
      vertex 6.33587 1.26028 103.365
      vertex 5.96826 2.47213 115.596
      vertex 5.96826 2.47213 103.365
    endloop
  endfacet
  facet normal -0.95694 -0.290284 0
    outer loop
      vertex 5.96826 2.47213 115.596
      vertex 6.33587 1.26028 103.365
      vertex 6.33587 1.26028 115.731
    endloop
  endfacet
  facet normal -0.995184 -0.0980197 0
    outer loop
      vertex 6.46 0 103.365
      vertex 6.33587 1.26028 115.731
      vertex 6.33587 1.26028 103.365
    endloop
  endfacet
  facet normal -0.995184 -0.0980197 0
    outer loop
      vertex 6.33587 1.26028 115.731
      vertex 6.46 0 103.365
      vertex 6.46 0 116.129
    endloop
  endfacet
  facet normal -0.881921 -0.471397 -0
    outer loop
      vertex 5.96826 2.47213 115.596
      vertex 5.37129 3.58898 103.365
      vertex 5.96826 2.47213 103.365
    endloop
  endfacet
  facet normal -0.881921 -0.471397 0
    outer loop
      vertex 5.37129 3.58898 103.365
      vertex 5.96826 2.47213 115.596
      vertex 5.37129 3.58898 115.731
    endloop
  endfacet
  facet normal 0.995184 0.0980197 0
    outer loop
      vertex -6.33587 -1.26028 115.731
      vertex -6.46 0 103.365
      vertex -6.46 0 116.129
    endloop
  endfacet
  facet normal 0.995184 0.0980197 0
    outer loop
      vertex -6.46 0 103.365
      vertex -6.33587 -1.26028 115.731
      vertex -6.33587 -1.26028 103.365
    endloop
  endfacet
  facet normal -0.995184 0.0980197 0
    outer loop
      vertex 6.33587 -1.26028 115.731
      vertex 6.46 0 103.365
      vertex 6.33587 -1.26028 103.365
    endloop
  endfacet
  facet normal -0.995184 0.0980197 0
    outer loop
      vertex 6.46 0 103.365
      vertex 6.33587 -1.26028 115.731
      vertex 6.46 0 116.129
    endloop
  endfacet
  facet normal -0.290284 0.95694 0
    outer loop
      vertex 1.26028 -6.33587 103.365
      vertex 2.47213 -5.96826 115.596
      vertex 2.47213 -5.96826 103.365
    endloop
  endfacet
  facet normal -0.290284 0.95694 0
    outer loop
      vertex 2.47213 -5.96826 115.596
      vertex 1.26028 -6.33587 103.365
      vertex 1.26028 -6.33587 115.731
    endloop
  endfacet
  facet normal -0.773011 -0.634393 0
    outer loop
      vertex 4.56791 4.56791 103.365
      vertex 5.24002 3.74894 115.796
      vertex 4.56791 4.56791 116.129
    endloop
  endfacet
  facet normal -0.773013 -0.63439 -0
    outer loop
      vertex 5.37129 3.58898 115.731
      vertex 4.56791 4.56791 103.365
      vertex 5.37129 3.58898 103.365
    endloop
  endfacet
  facet normal -0.773024 -0.634377 1.71276e-06
    outer loop
      vertex 4.56791 4.56791 103.365
      vertex 5.37129 3.58898 115.731
      vertex 5.24002 3.74894 115.796
    endloop
  endfacet
  facet normal 0.773011 -0.634393 0
    outer loop
      vertex -5.24002 3.74894 115.796
      vertex -4.56791 4.56791 103.365
      vertex -4.56791 4.56791 116.129
    endloop
  endfacet
  facet normal 0.773024 -0.634377 1.71276e-06
    outer loop
      vertex -5.37129 3.58898 115.731
      vertex -4.56791 4.56791 103.365
      vertex -5.24002 3.74894 115.796
    endloop
  endfacet
  facet normal 0.773013 -0.63439 0
    outer loop
      vertex -4.56791 4.56791 103.365
      vertex -5.37129 3.58898 115.731
      vertex -5.37129 3.58898 103.365
    endloop
  endfacet
  facet normal 0.0980197 -0.995184 0
    outer loop
      vertex 0 6.46 103.365
      vertex -1.26028 6.33587 115.731
      vertex -1.26028 6.33587 103.365
    endloop
  endfacet
  facet normal 0.0980197 -0.995184 0
    outer loop
      vertex -1.26028 6.33587 115.731
      vertex 0 6.46 103.365
      vertex 0 6.46 116.129
    endloop
  endfacet
  facet normal -0.881921 0.471397 0
    outer loop
      vertex 5.37129 -3.58898 103.365
      vertex 5.96826 -2.47213 115.596
      vertex 5.96826 -2.47213 103.365
    endloop
  endfacet
  facet normal -0.881921 0.471397 0
    outer loop
      vertex 5.96826 -2.47213 115.596
      vertex 5.37129 -3.58898 103.365
      vertex 5.37129 -3.58898 115.731
    endloop
  endfacet
  facet normal -0.95694 0.290284 0
    outer loop
      vertex 5.96826 -2.47213 115.596
      vertex 6.33587 -1.26028 103.365
      vertex 5.96826 -2.47213 103.365
    endloop
  endfacet
  facet normal -0.95694 0.290284 0
    outer loop
      vertex 6.33587 -1.26028 103.365
      vertex 5.96826 -2.47213 115.596
      vertex 6.33587 -1.26028 115.731
    endloop
  endfacet
  facet normal 0.634393 -0.773011 0
    outer loop
      vertex -4.56791 4.56791 103.365
      vertex -3.74894 5.24002 115.796
      vertex -4.56791 4.56791 116.129
    endloop
  endfacet
  facet normal 0.634377 -0.773024 1.71276e-06
    outer loop
      vertex -3.74894 5.24002 115.796
      vertex -4.56791 4.56791 103.365
      vertex -3.58898 5.37129 115.731
    endloop
  endfacet
  facet normal 0.63439 -0.773013 0
    outer loop
      vertex -3.58898 5.37129 115.731
      vertex -4.56791 4.56791 103.365
      vertex -3.58898 5.37129 103.365
    endloop
  endfacet
  facet normal 0.881921 -0.471397 0
    outer loop
      vertex -5.96826 2.47213 115.596
      vertex -5.37129 3.58898 103.365
      vertex -5.37129 3.58898 115.731
    endloop
  endfacet
  facet normal 0.881921 -0.471397 0
    outer loop
      vertex -5.37129 3.58898 103.365
      vertex -5.96826 2.47213 115.596
      vertex -5.96826 2.47213 103.365
    endloop
  endfacet
  facet normal 0.995184 -0.0980197 0
    outer loop
      vertex -6.46 0 103.365
      vertex -6.33587 1.26028 115.731
      vertex -6.46 0 116.129
    endloop
  endfacet
  facet normal 0.995184 -0.0980197 0
    outer loop
      vertex -6.33587 1.26028 115.731
      vertex -6.46 0 103.365
      vertex -6.33587 1.26028 103.365
    endloop
  endfacet
  facet normal 0.471397 -0.881921 0
    outer loop
      vertex -3.58898 5.37129 103.365
      vertex -2.47213 5.96826 115.596
      vertex -3.58898 5.37129 115.731
    endloop
  endfacet
  facet normal 0.471397 -0.881921 0
    outer loop
      vertex -2.47213 5.96826 115.596
      vertex -3.58898 5.37129 103.365
      vertex -2.47213 5.96826 103.365
    endloop
  endfacet
  facet normal 0.95694 -0.290284 0
    outer loop
      vertex -6.33587 1.26028 103.365
      vertex -5.96826 2.47213 115.596
      vertex -6.33587 1.26028 115.731
    endloop
  endfacet
  facet normal 0.95694 -0.290284 0
    outer loop
      vertex -5.96826 2.47213 115.596
      vertex -6.33587 1.26028 103.365
      vertex -5.96826 2.47213 103.365
    endloop
  endfacet
  facet normal 0.471397 0.881921 0
    outer loop
      vertex -3.58898 -5.37129 103.365
      vertex -2.47213 -5.96826 115.596
      vertex -2.47213 -5.96826 103.365
    endloop
  endfacet
  facet normal 0.471397 0.881921 0
    outer loop
      vertex -2.47213 -5.96826 115.596
      vertex -3.58898 -5.37129 103.365
      vertex -3.58898 -5.37129 115.731
    endloop
  endfacet
  facet normal -0.773013 0.63439 0
    outer loop
      vertex 4.56791 -4.56791 103.365
      vertex 5.37129 -3.58898 115.731
      vertex 5.37129 -3.58898 103.365
    endloop
  endfacet
  facet normal -0.773024 0.634377 1.71276e-06
    outer loop
      vertex 5.37129 -3.58898 115.731
      vertex 4.56791 -4.56791 103.365
      vertex 5.24002 -3.74894 115.796
    endloop
  endfacet
  facet normal -0.773011 0.634393 0
    outer loop
      vertex 5.24002 -3.74894 115.796
      vertex 4.56791 -4.56791 103.365
      vertex 4.56791 -4.56791 116.129
    endloop
  endfacet
  facet normal -0.290284 -0.95694 0
    outer loop
      vertex 1.26028 6.33587 103.365
      vertex 2.47213 5.96826 115.596
      vertex 1.26028 6.33587 115.731
    endloop
  endfacet
  facet normal -0.290284 -0.95694 -0
    outer loop
      vertex 2.47213 5.96826 115.596
      vertex 1.26028 6.33587 103.365
      vertex 2.47213 5.96826 103.365
    endloop
  endfacet
  facet normal 0.881921 0.471397 -0
    outer loop
      vertex -5.37129 -3.58898 103.365
      vertex -5.96826 -2.47213 115.596
      vertex -5.37129 -3.58898 115.731
    endloop
  endfacet
  facet normal 0.881921 0.471397 0
    outer loop
      vertex -5.96826 -2.47213 115.596
      vertex -5.37129 -3.58898 103.365
      vertex -5.96826 -2.47213 103.365
    endloop
  endfacet
  facet normal 0.773024 0.634377 1.71276e-06
    outer loop
      vertex -4.56791 -4.56791 103.365
      vertex -5.37129 -3.58898 115.731
      vertex -5.24002 -3.74894 115.796
    endloop
  endfacet
  facet normal 0.773011 0.634393 -0
    outer loop
      vertex -4.56791 -4.56791 103.365
      vertex -5.24002 -3.74894 115.796
      vertex -4.56791 -4.56791 116.129
    endloop
  endfacet
  facet normal 0.773013 0.63439 0
    outer loop
      vertex -5.37129 -3.58898 115.731
      vertex -4.56791 -4.56791 103.365
      vertex -5.37129 -3.58898 103.365
    endloop
  endfacet
  facet normal 0.290284 0.95694 -0
    outer loop
      vertex -1.26028 -6.33587 103.365
      vertex -2.47213 -5.96826 115.596
      vertex -1.26028 -6.33587 115.731
    endloop
  endfacet
  facet normal 0.290284 0.95694 0
    outer loop
      vertex -2.47213 -5.96826 115.596
      vertex -1.26028 -6.33587 103.365
      vertex -2.47213 -5.96826 103.365
    endloop
  endfacet
  facet normal -0.471397 0.881921 0
    outer loop
      vertex 3.58898 -5.37129 103.365
      vertex 2.47213 -5.96826 115.596
      vertex 3.58898 -5.37129 115.731
    endloop
  endfacet
  facet normal -0.471397 0.881921 0
    outer loop
      vertex 2.47213 -5.96826 115.596
      vertex 3.58898 -5.37129 103.365
      vertex 2.47213 -5.96826 103.365
    endloop
  endfacet
  facet normal -0.634377 -0.773024 1.71276e-06
    outer loop
      vertex 4.56791 4.56791 103.365
      vertex 3.74894 5.24002 115.796
      vertex 3.58898 5.37129 115.731
    endloop
  endfacet
  facet normal -0.63439 -0.773013 0
    outer loop
      vertex 4.56791 4.56791 103.365
      vertex 3.58898 5.37129 115.731
      vertex 3.58898 5.37129 103.365
    endloop
  endfacet
  facet normal -0.634393 -0.773011 0
    outer loop
      vertex 3.74894 5.24002 115.796
      vertex 4.56791 4.56791 103.365
      vertex 4.56791 4.56791 116.129
    endloop
  endfacet
  facet normal -0.0980197 -0.995184 0
    outer loop
      vertex 0 6.46 103.365
      vertex 1.26028 6.33587 115.731
      vertex 0 6.46 116.129
    endloop
  endfacet
  facet normal -0.0980197 -0.995184 -0
    outer loop
      vertex 1.26028 6.33587 115.731
      vertex 0 6.46 103.365
      vertex 1.26028 6.33587 103.365
    endloop
  endfacet
  facet normal -0.471397 -0.881921 0
    outer loop
      vertex 3.58898 5.37129 103.365
      vertex 2.47213 5.96826 115.596
      vertex 2.47213 5.96826 103.365
    endloop
  endfacet
  facet normal -0.471397 -0.881921 0
    outer loop
      vertex 2.47213 5.96826 115.596
      vertex 3.58898 5.37129 103.365
      vertex 3.58898 5.37129 115.731
    endloop
  endfacet
  facet normal 0.634377 0.773024 1.71276e-06
    outer loop
      vertex -4.56791 -4.56791 103.365
      vertex -3.74894 -5.24002 115.796
      vertex -3.58898 -5.37129 115.731
    endloop
  endfacet
  facet normal 0.63439 0.773013 0
    outer loop
      vertex -4.56791 -4.56791 103.365
      vertex -3.58898 -5.37129 115.731
      vertex -3.58898 -5.37129 103.365
    endloop
  endfacet
  facet normal 0.634393 0.773011 0
    outer loop
      vertex -3.74894 -5.24002 115.796
      vertex -4.56791 -4.56791 103.365
      vertex -4.56791 -4.56791 116.129
    endloop
  endfacet
  facet normal -0.0980197 0.995184 0
    outer loop
      vertex 0 -6.46 103.365
      vertex 1.26028 -6.33587 115.731
      vertex 1.26028 -6.33587 103.365
    endloop
  endfacet
  facet normal -0.0980197 0.995184 0
    outer loop
      vertex 1.26028 -6.33587 115.731
      vertex 0 -6.46 103.365
      vertex 0 -6.46 116.129
    endloop
  endfacet
  facet normal 0.0980197 0.995184 -0
    outer loop
      vertex 0 -6.46 103.365
      vertex -1.26028 -6.33587 115.731
      vertex 0 -6.46 116.129
    endloop
  endfacet
  facet normal 0.0980197 0.995184 0
    outer loop
      vertex -1.26028 -6.33587 115.731
      vertex 0 -6.46 103.365
      vertex -1.26028 -6.33587 103.365
    endloop
  endfacet
  facet normal 0 0 1
    outer loop
      vertex 6.33587 1.26028 103.365
      vertex 6.33587 -1.26028 103.365
      vertex 6.46 0 103.365
    endloop
  endfacet
  facet normal 0 0 1
    outer loop
      vertex 5.96826 2.47213 103.365
      vertex 6.33587 -1.26028 103.365
      vertex 6.33587 1.26028 103.365
    endloop
  endfacet
  facet normal 0 0 1
    outer loop
      vertex 5.96826 2.47213 103.365
      vertex 5.96826 -2.47213 103.365
      vertex 6.33587 -1.26028 103.365
    endloop
  endfacet
  facet normal 0 0 1
    outer loop
      vertex 5.37129 3.58898 103.365
      vertex 5.96826 -2.47213 103.365
      vertex 5.96826 2.47213 103.365
    endloop
  endfacet
  facet normal 0 0 1
    outer loop
      vertex 5.37129 3.58898 103.365
      vertex 5.37129 -3.58898 103.365
      vertex 5.96826 -2.47213 103.365
    endloop
  endfacet
  facet normal 0 0 1
    outer loop
      vertex 4.56791 4.56791 103.365
      vertex 5.37129 -3.58898 103.365
      vertex 5.37129 3.58898 103.365
    endloop
  endfacet
  facet normal 0 0 1
    outer loop
      vertex 4.56791 4.56791 103.365
      vertex 4.56791 -4.56791 103.365
      vertex 5.37129 -3.58898 103.365
    endloop
  endfacet
  facet normal 0 0 1
    outer loop
      vertex 3.58898 5.37129 103.365
      vertex 4.56791 -4.56791 103.365
      vertex 4.56791 4.56791 103.365
    endloop
  endfacet
  facet normal 0 0 1
    outer loop
      vertex 3.58898 5.37129 103.365
      vertex 3.58898 -5.37129 103.365
      vertex 4.56791 -4.56791 103.365
    endloop
  endfacet
  facet normal 0 0 1
    outer loop
      vertex 2.47213 5.96826 103.365
      vertex 3.58898 -5.37129 103.365
      vertex 3.58898 5.37129 103.365
    endloop
  endfacet
  facet normal 0 0 1
    outer loop
      vertex 2.47213 5.96826 103.365
      vertex 2.47213 -5.96826 103.365
      vertex 3.58898 -5.37129 103.365
    endloop
  endfacet
  facet normal 0 0 1
    outer loop
      vertex 1.26028 6.33587 103.365
      vertex 2.47213 -5.96826 103.365
      vertex 2.47213 5.96826 103.365
    endloop
  endfacet
  facet normal 0 0 1
    outer loop
      vertex 1.26028 6.33587 103.365
      vertex 1.26028 -6.33587 103.365
      vertex 2.47213 -5.96826 103.365
    endloop
  endfacet
  facet normal 0 0 1
    outer loop
      vertex 0 6.46 103.365
      vertex 1.26028 -6.33587 103.365
      vertex 1.26028 6.33587 103.365
    endloop
  endfacet
  facet normal 0 0 1
    outer loop
      vertex 0 6.46 103.365
      vertex 0 -6.46 103.365
      vertex 1.26028 -6.33587 103.365
    endloop
  endfacet
  facet normal -0 0 1
    outer loop
      vertex -1.26028 6.33587 103.365
      vertex 0 -6.46 103.365
      vertex 0 6.46 103.365
    endloop
  endfacet
  facet normal 0 0 1
    outer loop
      vertex -1.26028 6.33587 103.365
      vertex -1.26028 -6.33587 103.365
      vertex 0 -6.46 103.365
    endloop
  endfacet
  facet normal -0 0 1
    outer loop
      vertex -2.47213 5.96826 103.365
      vertex -1.26028 -6.33587 103.365
      vertex -1.26028 6.33587 103.365
    endloop
  endfacet
  facet normal 0 0 1
    outer loop
      vertex -2.47213 5.96826 103.365
      vertex -2.47213 -5.96826 103.365
      vertex -1.26028 -6.33587 103.365
    endloop
  endfacet
  facet normal -0 0 1
    outer loop
      vertex -3.58898 5.37129 103.365
      vertex -2.47213 -5.96826 103.365
      vertex -2.47213 5.96826 103.365
    endloop
  endfacet
  facet normal 0 0 1
    outer loop
      vertex -3.58898 5.37129 103.365
      vertex -3.58898 -5.37129 103.365
      vertex -2.47213 -5.96826 103.365
    endloop
  endfacet
  facet normal -0 0 1
    outer loop
      vertex -4.56791 4.56791 103.365
      vertex -3.58898 -5.37129 103.365
      vertex -3.58898 5.37129 103.365
    endloop
  endfacet
  facet normal 0 0 1
    outer loop
      vertex -4.56791 4.56791 103.365
      vertex -4.56791 -4.56791 103.365
      vertex -3.58898 -5.37129 103.365
    endloop
  endfacet
  facet normal -0 0 1
    outer loop
      vertex -5.37129 3.58898 103.365
      vertex -4.56791 -4.56791 103.365
      vertex -4.56791 4.56791 103.365
    endloop
  endfacet
  facet normal 0 0 1
    outer loop
      vertex -5.37129 3.58898 103.365
      vertex -5.37129 -3.58898 103.365
      vertex -4.56791 -4.56791 103.365
    endloop
  endfacet
  facet normal -0 0 1
    outer loop
      vertex -5.96826 2.47213 103.365
      vertex -5.37129 -3.58898 103.365
      vertex -5.37129 3.58898 103.365
    endloop
  endfacet
  facet normal 0 0 1
    outer loop
      vertex -5.96826 2.47213 103.365
      vertex -5.96826 -2.47213 103.365
      vertex -5.37129 -3.58898 103.365
    endloop
  endfacet
  facet normal -0 0 1
    outer loop
      vertex -6.33587 1.26028 103.365
      vertex -5.96826 -2.47213 103.365
      vertex -5.96826 2.47213 103.365
    endloop
  endfacet
  facet normal 0 0 1
    outer loop
      vertex -6.33587 1.26028 103.365
      vertex -6.33587 -1.26028 103.365
      vertex -5.96826 -2.47213 103.365
    endloop
  endfacet
  facet normal 0 -0 1
    outer loop
      vertex -6.33587 -1.26028 103.365
      vertex -6.33587 1.26028 103.365
      vertex -6.46 0 103.365
    endloop
  endfacet
  facet normal -0.634393 0.773011 0
    outer loop
      vertex 4.56791 -4.56791 103.365
      vertex 3.74894 -5.24002 115.796
      vertex 4.56791 -4.56791 116.129
    endloop
  endfacet
  facet normal -0.634377 0.773024 1.71276e-06
    outer loop
      vertex 3.74894 -5.24002 115.796
      vertex 4.56791 -4.56791 103.365
      vertex 3.58898 -5.37129 115.731
    endloop
  endfacet
  facet normal -0.63439 0.773013 0
    outer loop
      vertex 3.58898 -5.37129 115.731
      vertex 4.56791 -4.56791 103.365
      vertex 3.58898 -5.37129 103.365
    endloop
  endfacet
  facet normal 0.95694 0.290284 0
    outer loop
      vertex -5.96826 -2.47213 115.596
      vertex -6.33587 -1.26028 103.365
      vertex -6.33587 -1.26028 115.731
    endloop
  endfacet
  facet normal 0.95694 0.290284 0
    outer loop
      vertex -6.33587 -1.26028 103.365
      vertex -5.96826 -2.47213 115.596
      vertex -5.96826 -2.47213 103.365
    endloop
  endfacet
endsolid OpenSCAD_Model
